<svg width="30" height="34" viewBox="0 0 30 34" fill="none" xmlns="http://www.w3.org/2000/svg">
<path d="M2.73034 30.3708L0 0H30L27.2673 30.3658L14.9816 33.7442L2.73034 30.3708Z" fill="#1572B6"/>
<path d="M15.0005 31.1621L24.9274 28.4324L27.2629 2.48352H15.0005V31.1621Z" fill="#33A9DC"/>
<path d="M15.0002 13.4867H19.9699L20.3135 9.67254H15.0002V5.94763H24.4179L24.3279 6.94692L23.405 17.2113H15.0002V13.4867Z" fill="white"/>
<path d="M15.0227 23.1605L15.0062 23.1652L10.8235 22.0449L10.5558 19.0741H6.78619L7.31257 24.9226L15.0055 27.0406L15.0231 27.0356L15.0227 23.1605Z" fill="#EBEBEB"/>
<path d="M19.6509 17.0537L19.1984 22.0421L15.0096 23.1634V27.0388L22.709 24.9226L22.7657 24.2932L23.4192 17.0537H19.6509Z" fill="white"/>
<path d="M15.0133 5.94763V9.6722H5.94151L5.86598 8.83512L5.69501 6.94692L5.60498 5.94763H15.0133ZM15.0001 13.4871V17.212H10.8704L10.7952 16.3749L10.6239 14.4864L10.5339 13.4871H15.0001Z" fill="#EBEBEB"/>
</svg>
