<svg width="30" height="34" viewBox="0 0 30 34" fill="none" xmlns="http://www.w3.org/2000/svg">
<path d="M2.7302 30.3726L0 0H30L27.2671 30.3679L14.9817 33.7459L2.7302 30.3726Z" fill="#E44D26"/>
<path d="M15 31.1638L24.9269 28.434L27.2627 2.48373H15V31.1638Z" fill="#F16529"/>
<path d="M15 13.7485H10.0301L9.68722 9.93357H15V6.2085H5.58258L5.6722 7.20811L6.5955 17.4733H15V13.7485ZM15 23.4225L14.9833 23.4269L10.801 22.3064L10.5335 19.3358H6.76319L7.28934 25.1847L14.9827 27.3031L15 27.2981V23.4225Z" fill="#EBEBEB"/>
<path d="M14.9871 13.7485V17.4733H19.6118L19.1759 22.3044L14.9871 23.4259V27.3011L22.6865 25.1847L22.7429 24.5551L23.6255 14.7485L23.7171 13.7485H22.7049H14.9871ZM14.9871 6.2085V9.93357H24.0589L24.134 9.09624L24.3054 7.20811L24.3953 6.2085H14.9871Z" fill="white"/>
</svg>