<svg width="34" height="34" viewBox="0 0 34 34" fill="none" xmlns="http://www.w3.org/2000/svg">
<path d="M17.0023 34C14.6463 34.0009 12.3159 33.5119 10.1589 32.5639C8.00199 31.6159 6.06564 30.2298 4.47282 28.4934C2.87999 26.757 1.66548 24.7084 0.906376 22.4775C0.147275 20.2466 -0.139833 17.8822 0.0632794 15.5344C0.266392 13.1866 0.955287 10.9067 2.08623 8.83944C3.21718 6.77215 4.76547 4.96263 6.63282 3.52575C8.50018 2.08887 10.6458 1.05602 12.9335 0.492763C15.2212 -0.0704918 17.6009 -0.151847 19.9217 0.253861C20.1831 0.299684 20.4198 0.436618 20.5899 0.640379C20.7599 0.84414 20.8523 1.10156 20.8507 1.36698C20.8491 1.63241 20.7536 1.88868 20.581 2.09036C20.4085 2.29203 20.1702 2.42608 19.9082 2.46871C18.3367 2.72655 16.8483 3.35224 15.5645 4.29477C14.2806 5.23729 13.2377 6.46997 12.5206 7.8923C11.8035 9.31463 11.4327 10.8863 11.4383 12.4793C11.4438 14.0722 11.8257 15.6412 12.5528 17.0585C13.2798 18.4758 14.3314 19.7011 15.6218 20.6346C16.9123 21.5681 18.405 22.1833 19.9783 22.4301C21.5516 22.6769 23.161 22.5482 24.6752 22.0547C26.1893 21.5611 27.5654 20.7166 28.6913 19.59C30.1948 18.0987 31.1884 16.17 31.5299 14.0798C31.5724 13.8175 31.7065 13.5788 31.9084 13.406C32.1103 13.2333 32.3669 13.1377 32.6326 13.1364C32.8967 13.1367 33.1522 13.2301 33.3543 13.4002C33.5564 13.5702 33.6921 13.8061 33.7375 14.0664C34.1658 16.5096 34.0544 19.0169 33.4109 21.4125C32.7675 23.808 31.6077 26.0337 30.013 27.9332C28.4182 29.8328 26.4271 31.3602 24.1795 32.4082C21.9319 33.4563 19.4821 33.9996 17.0023 34ZM12.8252 3.70418C13.1363 3.39335 12.8598 2.83698 12.4416 2.97318C10.4866 3.61002 8.67948 4.6509 7.14119 6.03563C5.1511 7.82707 3.68592 10.1265 2.90271 12.6873C2.11951 15.2482 2.04781 17.974 2.6953 20.5725C3.34279 23.171 4.68505 25.5443 6.57822 27.4379C8.47138 29.3316 10.8441 30.6742 13.4419 31.3218C16.0398 31.9695 18.7649 31.8978 21.3251 31.1144C23.8853 30.331 26.1841 28.8654 27.9751 26.8748C29.3596 25.336 30.4003 23.5284 31.0369 21.5727C31.1734 21.1536 30.617 20.8771 30.306 21.1894C29.1582 22.3375 27.7955 23.2482 26.2959 23.8695C24.7962 24.4909 23.1888 24.8107 21.5656 24.8107C19.9424 24.8107 18.335 24.4909 16.8353 23.8695C15.3357 23.2482 13.973 22.3375 12.8252 21.1894C10.5071 18.8707 9.20481 15.7259 9.20481 12.4468C9.20481 9.16767 10.5071 6.02286 12.8252 3.70418Z" fill="#C4C4C4"/>
<path d="M22.6166 18.1231H17.0023C16.7799 18.1235 16.5624 18.0579 16.3774 17.9345C16.1924 17.8111 16.0481 17.6356 15.963 17.4301C15.8778 17.2246 15.8556 16.9985 15.8991 16.7803C15.9426 16.5622 16.0498 16.3619 16.2073 16.2048L17.8524 14.5603C18.6101 13.8028 18.0737 12.5074 17.0023 12.5074C16.7045 12.5074 16.4189 12.3891 16.2083 12.1784C15.9977 11.9678 15.8794 11.6821 15.8794 11.3842C15.8794 11.0864 15.9977 10.8007 16.2083 10.5901C16.4189 10.3794 16.7045 10.2611 17.0023 10.2611H22.6166C22.839 10.2607 23.0565 10.3264 23.2415 10.4497C23.4265 10.5731 23.5707 10.7487 23.6559 10.9542C23.7411 11.1596 23.7633 11.3858 23.7198 11.6039C23.6763 11.822 23.569 12.0224 23.4116 12.1794L21.7665 13.824C21.0088 14.5814 21.5452 15.8768 22.6166 15.8768C22.9144 15.8768 23.2 15.9952 23.4106 16.2058C23.6212 16.4164 23.7395 16.7021 23.7395 17C23.7395 17.2979 23.6212 17.5835 23.4106 17.7942C23.2 18.0048 22.9144 18.1231 22.6166 18.1231Z" fill="#C4C4C4"/>
<path d="M32.8751 7.86205H27.2608C27.0389 7.862 26.8219 7.79619 26.6374 7.67291C26.4529 7.54963 26.309 7.37443 26.2239 7.16941C26.1389 6.9644 26.1164 6.73877 26.1595 6.52102C26.2025 6.30327 26.3091 6.10316 26.4658 5.94596L28.1115 4.29981C28.8692 3.54193 28.3324 2.2463 27.2608 2.2463C26.963 2.2463 26.6774 2.12797 26.4668 1.91734C26.2562 1.70671 26.1379 1.42103 26.1379 1.12315C26.1379 0.825274 26.2562 0.539596 26.4668 0.328965C26.6774 0.118333 26.963 1.7985e-06 27.2608 1.7985e-06H32.8751C33.0975 -0.000396168 33.315 0.0652596 33.5 0.188646C33.685 0.312032 33.8293 0.487591 33.9144 0.693068C33.9996 0.898544 34.0218 1.12468 33.9783 1.34282C33.9348 1.56095 33.8275 1.76126 33.6701 1.91834L32.025 3.56287C31.2673 4.32031 31.8037 5.61575 32.8751 5.61575C33.1729 5.61575 33.4585 5.73408 33.6691 5.94471C33.8797 6.15534 33.998 6.44102 33.998 6.7389C33.998 7.03678 33.8797 7.32246 33.6691 7.53309C33.4585 7.74372 33.1729 7.86205 32.8751 7.86205Z" fill="#C4C4C4"/>
</svg>