<?xml version="1.0" standalone="no"?>
<!DOCTYPE svg PUBLIC "-//W3C//DTD SVG 20010904//EN"
 "http://www.w3.org/TR/2001/REC-SVG-20010904/DTD/svg10.dtd">
<svg version="1.0" xmlns="http://www.w3.org/2000/svg"
 width="512.000000pt" height="512.000000pt" viewBox="0 0 512.000000 512.000000"
 preserveAspectRatio="xMidYMid meet">

<g transform="translate(0.000000,512.000000) scale(0.100000,-0.100000)"
fill="#000000" stroke="none">
<path d="M985 5104 c-44 -23 -943 -922 -966 -966 -19 -37 -19 -69 -16 -1780 3
-1899 -2 -1759 57 -1898 91 -214 290 -382 520 -441 82 -21 3278 -21 3360 0
230 59 429 227 520 441 47 113 52 145 57 386 5 220 4 233 -16 272 -14 28 -35
49 -61 62 -36 18 -58 20 -280 20 l-240 0 0 892 0 892 563 566 c521 523 566
570 591 628 58 133 57 260 -3 388 -80 171 -281 277 -467 246 -138 -23 -174
-48 -441 -315 l-243 -241 0 372 c0 354 -1 375 -20 412 -13 26 -34 47 -60 60
-39 20 -55 20 -1432 20 -1242 -1 -1396 -2 -1423 -16z m2635 -716 l0 -433 -167
-167 -168 -168 -1283 0 c-1266 0 -1283 0 -1322 -20 -45 -23 -80 -80 -80 -130
0 -50 35 -107 80 -130 39 -20 56 -20 1172 -20 l1133 0 -150 -150 -150 -150
-983 0 c-965 0 -984 0 -1022 -20 -45 -23 -80 -80 -80 -130 0 -50 35 -107 80
-130 38 -20 57 -20 871 -20 l833 0 -96 -97 c-77 -79 -98 -108 -112 -150 l-18
-53 -719 0 c-702 0 -721 -1 -759 -20 -45 -23 -80 -80 -80 -130 0 -50 35 -107
80 -130 38 -19 57 -20 709 -20 l670 0 -36 -107 c-29 -88 -43 -116 -76 -150
l-41 -43 -593 0 c-575 0 -595 -1 -633 -20 -45 -23 -80 -80 -80 -130 0 -50 35
-107 80 -130 38 -19 58 -20 675 -20 540 0 641 2 671 15 20 8 68 46 107 84 l72
68 310 103 310 102 398 397 397 396 0 -743 0 -742 -1150 0 c-1134 0 -1151 0
-1190 -20 -70 -36 -80 -70 -80 -278 0 -99 -5 -203 -10 -233 -45 -235 -275
-399 -506 -361 -190 31 -339 175 -374 361 -6 35 -10 607 -10 1652 l0 1599 390
0 c372 0 393 1 430 20 26 13 47 34 60 60 19 37 20 58 20 430 l0 390 1210 0
1210 0 0 -432z m-2720 22 l0 -190 -192 0 -193 0 190 190 c104 105 191 190 192
190 2 0 3 -85 3 -190z m3840 89 c45 -25 80 -83 80 -131 0 -42 -40 -106 -104
-168 l-46 -45 -107 108 -108 107 55 56 c93 94 156 114 230 73z m-990 -1264
l-710 -710 -107 108 -108 107 710 710 710 710 107 -107 108 -108 -710 -710z
m-1030 -820 l105 -105 -75 -75 -74 -75 -154 -51 c-84 -28 -156 -49 -159 -46
-3 3 18 75 46 159 l51 153 72 72 c40 40 75 73 78 73 3 0 52 -47 110 -105z
m1500 -1604 c0 -48 -5 -112 -10 -142 -34 -180 -179 -325 -359 -359 -35 -6
-487 -10 -1278 -10 l-1224 0 34 53 c76 119 117 272 117 442 l0 105 1360 0
1360 0 0 -89z"/>
<path d="M1588 4199 c-43 -22 -78 -81 -78 -129 0 -50 35 -107 80 -130 38 -20
57 -20 825 -20 768 0 787 0 825 20 45 23 80 80 80 130 0 50 -35 107 -80 130
-38 20 -57 20 -827 20 -765 -1 -789 -1 -825 -21z"/>
</g>
</svg>
