<svg width="34" height="34" viewBox="0 0 34 34" fill="none" xmlns="http://www.w3.org/2000/svg">
<path d="M16.9909 22.4091C18.4909 22.4091 19.7689 21.8841 20.825 20.8341C21.8811 19.7841 22.4091 18.5091 22.4091 17.0091C22.4091 15.5091 21.8841 14.2311 20.8341 13.175C19.7841 12.1189 18.5091 11.5909 17.0091 11.5909C15.5091 11.5909 14.2311 12.1159 13.175 13.1659C12.1189 14.2159 11.5909 15.4909 11.5909 16.9909C11.5909 18.4909 12.1159 19.7689 13.1659 20.825C14.2159 21.8811 15.4909 22.4091 16.9909 22.4091ZM17 24.7273C14.8621 24.7273 13.0398 23.9739 11.533 22.467C10.0261 20.9602 9.27273 19.1379 9.27273 17C9.27273 14.8621 10.0261 13.0398 11.533 11.533C13.0398 10.0261 14.8621 9.27273 17 9.27273C19.1379 9.27273 20.9602 10.0261 22.467 11.533C23.9739 13.0398 24.7273 14.8621 24.7273 17C24.7273 19.1379 23.9739 20.9602 22.467 22.467C20.9602 23.9739 19.1379 24.7273 17 24.7273ZM1.15909 18.1591C0.830682 18.1591 0.555398 18.0474 0.333239 17.8239C0.11108 17.6005 0 17.3236 0 16.9932C0 16.6629 0.11108 16.3883 0.333239 16.1693C0.555398 15.9504 0.830682 15.8409 1.15909 15.8409H5.02273C5.35114 15.8409 5.62642 15.9526 5.84858 16.1761C6.07074 16.3996 6.18182 16.6764 6.18182 17.0068C6.18182 17.3371 6.07074 17.6117 5.84858 17.8307C5.62642 18.0496 5.35114 18.1591 5.02273 18.1591H1.15909ZM28.9773 18.1591C28.6489 18.1591 28.3736 18.0474 28.1514 17.8239C27.9293 17.6005 27.8182 17.3236 27.8182 16.9932C27.8182 16.6629 27.9293 16.3883 28.1514 16.1693C28.3736 15.9504 28.6489 15.8409 28.9773 15.8409H32.8409C33.1693 15.8409 33.4446 15.9526 33.6668 16.1761C33.8889 16.3996 34 16.6764 34 17.0068C34 17.3371 33.8889 17.6117 33.6668 17.8307C33.4446 18.0496 33.1693 18.1591 32.8409 18.1591H28.9773ZM16.9932 6.18182C16.6629 6.18182 16.3883 6.07074 16.1693 5.84858C15.9504 5.62642 15.8409 5.35114 15.8409 5.02273V1.15909C15.8409 0.830682 15.9526 0.555398 16.1761 0.333239C16.3996 0.11108 16.6764 0 17.0068 0C17.3371 0 17.6117 0.11108 17.8307 0.333239C18.0496 0.555398 18.1591 0.830682 18.1591 1.15909V5.02273C18.1591 5.35114 18.0474 5.62642 17.8239 5.84858C17.6005 6.07074 17.3236 6.18182 16.9932 6.18182ZM16.9932 34C16.6629 34 16.3883 33.8889 16.1693 33.6668C15.9504 33.4446 15.8409 33.1693 15.8409 32.8409V28.9773C15.8409 28.6489 15.9526 28.3736 16.1761 28.1514C16.3996 27.9293 16.6764 27.8182 17.0068 27.8182C17.3371 27.8182 17.6117 27.9293 17.8307 28.1514C18.0496 28.3736 18.1591 28.6489 18.1591 28.9773V32.8409C18.1591 33.1693 18.0474 33.4446 17.8239 33.6668C17.6005 33.8889 17.3236 34 16.9932 34ZM7.72727 9.35L5.525 7.18636C5.29318 6.95455 5.18205 6.67632 5.19161 6.3517C5.20114 6.02705 5.31094 5.75016 5.52102 5.52102C5.75016 5.29185 6.02705 5.17727 6.3517 5.17727C6.67633 5.17727 6.95455 5.29318 7.18636 5.525L9.35 7.72727C9.55606 7.95909 9.65909 8.22955 9.65909 8.53864C9.65909 8.84773 9.55606 9.11174 9.35 9.33068C9.14394 9.54962 8.87992 9.65909 8.55795 9.65909C8.23598 9.65909 7.95909 9.55606 7.72727 9.35ZM26.8136 28.475L24.65 26.2727C24.4439 26.0409 24.3409 25.7656 24.3409 25.4469C24.3409 25.1281 24.4504 24.8625 24.6693 24.65C24.8883 24.4182 25.1523 24.3023 25.4614 24.3023C25.7705 24.3023 26.0409 24.4182 26.2727 24.65L28.475 26.8136C28.7068 27.0455 28.818 27.3237 28.8084 27.6483C28.7989 27.9729 28.6891 28.2498 28.479 28.479C28.2498 28.7081 27.9729 28.8227 27.6483 28.8227C27.3237 28.8227 27.0455 28.7068 26.8136 28.475ZM24.65 9.35C24.4182 9.11818 24.3023 8.84773 24.3023 8.53864C24.3023 8.22955 24.4182 7.95909 24.65 7.72727L26.8136 5.525C27.0455 5.29318 27.3237 5.18205 27.6483 5.19161C27.9729 5.20114 28.2498 5.31094 28.479 5.52102C28.7081 5.75016 28.8227 6.02705 28.8227 6.3517C28.8227 6.67632 28.7068 6.95455 28.475 7.18636L26.2727 9.35C26.0667 9.55606 25.8044 9.65909 25.4859 9.65909C25.1675 9.65909 24.8889 9.55606 24.65 9.35ZM5.52102 28.479C5.29186 28.2498 5.17727 27.9729 5.17727 27.6483C5.17727 27.3237 5.29318 27.0455 5.525 26.8136L7.72727 24.65C7.95394 24.4182 8.22311 24.3023 8.53477 24.3023C8.84644 24.3023 9.11315 24.4182 9.33489 24.65C9.57678 24.8818 9.69773 25.1523 9.69773 25.4614C9.69773 25.7705 9.58182 26.0409 9.35 26.2727L7.18636 28.475C6.95455 28.7068 6.67633 28.818 6.3517 28.8084C6.02705 28.7989 5.75016 28.6891 5.52102 28.479Z" fill="#FFF501"/>
<path d="M16.9909 22.4091C18.4909 22.4091 19.7689 21.8841 20.825 20.8341C21.8811 19.7841 22.4091 18.5091 22.4091 17.0091C22.4091 15.5091 21.8841 14.2311 20.8341 13.175C19.7841 12.1189 18.5091 11.5909 17.0091 11.5909C15.5091 11.5909 14.2311 12.1159 13.175 13.1659C12.1189 14.2159 11.5909 15.4909 11.5909 16.9909C11.5909 18.4909 12.1159 19.7689 13.1659 20.825C14.2159 21.8811 15.4909 22.4091 16.9909 22.4091ZM17 24.7273C14.8621 24.7273 13.0398 23.9739 11.533 22.467C10.0261 20.9602 9.27273 19.1379 9.27273 17C9.27273 14.8621 10.0261 13.0398 11.533 11.533C13.0398 10.0261 14.8621 9.27273 17 9.27273C19.1379 9.27273 20.9602 10.0261 22.467 11.533C23.9739 13.0398 24.7273 14.8621 24.7273 17C24.7273 19.1379 23.9739 20.9602 22.467 22.467C20.9602 23.9739 19.1379 24.7273 17 24.7273ZM1.15909 18.1591C0.830682 18.1591 0.555398 18.0474 0.333239 17.8239C0.11108 17.6005 0 17.3236 0 16.9932C0 16.6629 0.11108 16.3883 0.333239 16.1693C0.555398 15.9504 0.830682 15.8409 1.15909 15.8409H5.02273C5.35114 15.8409 5.62642 15.9526 5.84858 16.1761C6.07074 16.3996 6.18182 16.6764 6.18182 17.0068C6.18182 17.3371 6.07074 17.6117 5.84858 17.8307C5.62642 18.0496 5.35114 18.1591 5.02273 18.1591H1.15909ZM28.9773 18.1591C28.6489 18.1591 28.3736 18.0474 28.1514 17.8239C27.9293 17.6005 27.8182 17.3236 27.8182 16.9932C27.8182 16.6629 27.9293 16.3883 28.1514 16.1693C28.3736 15.9504 28.6489 15.8409 28.9773 15.8409H32.8409C33.1693 15.8409 33.4446 15.9526 33.6668 16.1761C33.8889 16.3996 34 16.6764 34 17.0068C34 17.3371 33.8889 17.6117 33.6668 17.8307C33.4446 18.0496 33.1693 18.1591 32.8409 18.1591H28.9773ZM16.9932 6.18182C16.6629 6.18182 16.3883 6.07074 16.1693 5.84858C15.9504 5.62642 15.8409 5.35114 15.8409 5.02273V1.15909C15.8409 0.830682 15.9526 0.555398 16.1761 0.333239C16.3996 0.11108 16.6764 0 17.0068 0C17.3371 0 17.6117 0.11108 17.8307 0.333239C18.0496 0.555398 18.1591 0.830682 18.1591 1.15909V5.02273C18.1591 5.35114 18.0474 5.62642 17.8239 5.84858C17.6005 6.07074 17.3236 6.18182 16.9932 6.18182ZM16.9932 34C16.6629 34 16.3883 33.8889 16.1693 33.6668C15.9504 33.4446 15.8409 33.1693 15.8409 32.8409V28.9773C15.8409 28.6489 15.9526 28.3736 16.1761 28.1514C16.3996 27.9293 16.6764 27.8182 17.0068 27.8182C17.3371 27.8182 17.6117 27.9293 17.8307 28.1514C18.0496 28.3736 18.1591 28.6489 18.1591 28.9773V32.8409C18.1591 33.1693 18.0474 33.4446 17.8239 33.6668C17.6005 33.8889 17.3236 34 16.9932 34ZM7.72727 9.35L5.525 7.18636C5.29318 6.95455 5.18205 6.67632 5.19161 6.3517C5.20114 6.02705 5.31094 5.75016 5.52102 5.52102C5.75016 5.29185 6.02705 5.17727 6.3517 5.17727C6.67633 5.17727 6.95455 5.29318 7.18636 5.525L9.35 7.72727C9.55606 7.95909 9.65909 8.22955 9.65909 8.53864C9.65909 8.84773 9.55606 9.11174 9.35 9.33068C9.14394 9.54962 8.87992 9.65909 8.55795 9.65909C8.23598 9.65909 7.95909 9.55606 7.72727 9.35ZM26.8136 28.475L24.65 26.2727C24.4439 26.0409 24.3409 25.7656 24.3409 25.4469C24.3409 25.1281 24.4504 24.8625 24.6693 24.65C24.8883 24.4182 25.1523 24.3023 25.4614 24.3023C25.7705 24.3023 26.0409 24.4182 26.2727 24.65L28.475 26.8136C28.7068 27.0455 28.818 27.3237 28.8084 27.6483C28.7989 27.9729 28.6891 28.2498 28.479 28.479C28.2498 28.7081 27.9729 28.8227 27.6483 28.8227C27.3237 28.8227 27.0455 28.7068 26.8136 28.475ZM24.65 9.35C24.4182 9.11818 24.3023 8.84773 24.3023 8.53864C24.3023 8.22955 24.4182 7.95909 24.65 7.72727L26.8136 5.525C27.0455 5.29318 27.3237 5.18205 27.6483 5.19161C27.9729 5.20114 28.2498 5.31094 28.479 5.52102C28.7081 5.75016 28.8227 6.02705 28.8227 6.3517C28.8227 6.67632 28.7068 6.95455 28.475 7.18636L26.2727 9.35C26.0667 9.55606 25.8044 9.65909 25.4859 9.65909C25.1675 9.65909 24.8889 9.55606 24.65 9.35ZM5.52102 28.479C5.29186 28.2498 5.17727 27.9729 5.17727 27.6483C5.17727 27.3237 5.29318 27.0455 5.525 26.8136L7.72727 24.65C7.95394 24.4182 8.22311 24.3023 8.53477 24.3023C8.84644 24.3023 9.11315 24.4182 9.33489 24.65C9.57678 24.8818 9.69773 25.1523 9.69773 25.4614C9.69773 25.7705 9.58182 26.0409 9.35 26.2727L7.18636 28.475C6.95455 28.7068 6.67633 28.818 6.3517 28.8084C6.02705 28.7989 5.75016 28.6891 5.52102 28.479Z" fill="#FF8A00" fill-opacity="0.4"/>
</svg>
